<svg width="312" height="312" viewBox="0 0 312 312" fill="none" xmlns="http://www.w3.org/2000/svg">
<g clip-path="url(#clip0_301_6)">
<path d="M65.5797 19.5H246.415C273.77 19.4727 295.973 41.6321 295.995 68.9922V69.0852V242.92C296.022 270.275 273.863 292.478 246.508 292.5H246.415H65.5797C38.225 292.527 16.0274 270.368 16 243.013V242.92V69.0797C15.9781 41.725 38.132 19.5274 65.4867 19.5H65.5797Z" fill="#000B1D"/>
<path d="M65.4648 210.714V91.4789C65.4648 90.3141 65.8094 89.7344 66.6297 89.6141C68.7297 89.4938 71.9945 89.3789 76.4297 89.3789C80.8648 89.3789 85.5297 89.2586 90.6648 89.1438C95.8 89.0289 100.465 89.0234 104.785 89.0234C115.05 89.0234 123.22 90.1883 129.285 92.4031C134.53 94.1477 139.32 97.0625 143.285 100.923C146.304 103.959 148.552 107.683 149.82 111.768C150.892 115.126 151.445 118.626 151.455 122.148C151.538 125.888 150.909 129.612 149.591 133.112C148.568 136.005 147.02 138.696 145.046 141.048C143.641 142.869 141.945 144.444 140.026 145.713C142.695 147.14 145.205 148.857 147.491 150.848C150.438 153.451 152.817 156.628 154.491 160.183C156.596 164.705 157.635 169.66 157.526 174.648C157.624 181.806 155.42 188.801 151.226 194.603C146.599 200.706 140.327 205.366 133.146 208.023C125.326 211.168 115.991 212.803 105.026 212.803H92.6609C88.6961 212.803 85.0813 212.803 81.8164 212.683C78.5516 212.562 75.6367 212.563 73.1813 212.448C70.7367 212.327 68.6367 212.327 66.8813 212.327C65.9352 212.344 65.4648 211.764 65.4648 210.714ZM90.7797 111.434V137.57H103.5C106.88 137.57 110.155 137.69 113.42 137.805C115.772 137.805 118.113 138.04 120.42 138.505C122.061 137.083 123.445 135.388 124.5 133.484C125.621 131.155 126.179 128.601 126.135 126.02C126.266 123.061 125.402 120.146 123.68 117.74C121.848 115.509 119.425 113.852 116.68 112.96C112.868 111.784 108.887 111.232 104.9 111.325H99.4203C97.7852 111.325 96.2648 111.325 94.9852 111.445C93.7 111.314 92.3 111.434 90.7797 111.434ZM90.7797 159.614V190.649C92.8797 190.77 94.9797 190.884 97.2 190.884C99.4203 190.884 101.865 191.005 104.9 191.005C109.505 191.098 114.098 190.551 118.555 189.37C121.968 188.533 125.052 186.712 127.42 184.114C129.466 181.615 130.537 178.47 130.455 175.249C130.527 172.121 129.679 169.031 128 166.384C126.365 163.929 123.335 162.064 119.02 160.905C117.33 160.478 115.613 160.172 113.885 159.97C111.594 159.734 109.297 159.625 107.005 159.625H90.7852V159.614H90.7797Z" fill="white"/>
<path d="M233 172.68H196.021C196.469 176.213 197.7 179.609 199.641 182.6C201.703 185.745 204.678 188.189 208.161 189.6C212.892 191.541 217.983 192.46 223.097 192.28C227.16 192.28 231.223 191.935 235.232 191.224C238.994 190.546 242.675 189.447 246.196 187.959C246.776 187.495 247.132 187.724 247.132 188.895V206.739C247.11 207.215 247.033 207.685 246.896 208.139C246.683 208.462 246.41 208.746 246.076 208.959C242.171 210.808 238.059 212.181 233.821 213.039C228.363 214.084 222.812 214.559 217.256 214.439C208.391 214.439 200.921 213.039 194.856 210.359C189.152 207.877 184.11 204.081 180.156 199.28C176.459 194.784 173.719 189.584 172.1 184C168.682 172.363 168.847 159.965 172.565 148.42C174.425 142.58 177.4 137.155 181.31 132.441C185.171 127.776 189.983 124.002 195.43 121.361C201.539 118.561 208.2 117.166 214.91 117.281C221.133 117.134 227.307 118.375 232.989 120.902C237.807 123.073 242.018 126.403 245.245 130.581C248.346 134.568 250.714 139.069 252.245 143.881C253.727 148.481 254.482 153.282 254.465 158.116C254.465 160.916 254.345 163.372 254.23 165.581C254.115 167.791 253.886 169.426 253.765 170.481C253.661 171.318 252.972 171.952 252.13 172.002C251.43 172.002 250.15 172.122 248.286 172.237C246.038 172.494 243.779 172.609 241.521 172.581C238.836 172.565 236.036 172.68 233 172.68ZM196.021 154.365H220.641C223.676 154.365 225.896 154.365 227.296 154.245C228.199 154.228 229.096 154.157 229.976 154.009V152.845C229.982 151.379 229.741 149.919 229.276 148.524C227.176 141.967 220.997 137.587 214.111 137.789C207.642 137.423 201.566 140.895 198.591 146.654C197.279 149.06 196.409 151.663 196.021 154.365Z" fill="white"/>
</g>
<defs>
<clipPath id="clip0_301_6">
<rect width="280" height="280" fill="white" transform="translate(16 16)"/>
</clipPath>
</defs>
</svg>
