<svg width="221" height="60" viewBox="0 0 221 60" fill="none" xmlns="http://www.w3.org/2000/svg">
<rect width="221" height="60" rx="12" fill="#632CFF"/>
<path d="M16.536 35.792H22.176V38H13.8V21.32H16.536V35.792ZM36.5841 31.064C36.5841 31.56 36.5521 32.008 36.4881 32.408H26.3841C26.4641 33.464 26.8561 34.312 27.5601 34.952C28.2641 35.592 29.1281 35.912 30.1521 35.912C31.6241 35.912 32.6641 35.296 33.2721 34.064H36.2241C35.8241 35.28 35.0961 36.28 34.0401 37.064C33.0001 37.832 31.7041 38.216 30.1521 38.216C28.8881 38.216 27.7521 37.936 26.7441 37.376C25.7521 36.8 24.9681 36 24.3921 34.976C23.8321 33.936 23.5521 32.736 23.5521 31.376C23.5521 30.016 23.8241 28.824 24.3681 27.8C24.9281 26.76 25.7041 25.96 26.6961 25.4C27.7041 24.84 28.8561 24.56 30.1521 24.56C31.4001 24.56 32.5121 24.832 33.4881 25.376C34.4641 25.92 35.2241 26.688 35.7681 27.68C36.3121 28.656 36.5841 29.784 36.5841 31.064ZM33.7281 30.2C33.7121 29.192 33.3521 28.384 32.6481 27.776C31.9441 27.168 31.0721 26.864 30.0321 26.864C29.0881 26.864 28.2801 27.168 27.6081 27.776C26.9361 28.368 26.5361 29.176 26.4081 30.2H33.7281ZM42.4686 27.008V34.328C42.4686 34.824 42.5806 35.184 42.8046 35.408C43.0446 35.616 43.4446 35.72 44.0046 35.72H45.6846V38H43.5246C42.2926 38 41.3486 37.712 40.6926 37.136C40.0366 36.56 39.7086 35.624 39.7086 34.328V27.008H38.1486V24.776H39.7086V21.488H42.4686V24.776H45.6846V27.008H42.4686ZM48.6383 21.32H51.6143L49.0943 27.032H47.1743L48.6383 21.32ZM58.8188 38.216C57.7788 38.216 56.8428 38.032 56.0108 37.664C55.1948 37.28 54.5468 36.768 54.0668 36.128C53.5868 35.472 53.3308 34.744 53.2988 33.944H56.1308C56.1788 34.504 56.4428 34.976 56.9228 35.36C57.4188 35.728 58.0348 35.912 58.7708 35.912C59.5388 35.912 60.1308 35.768 60.5468 35.48C60.9788 35.176 61.1948 34.792 61.1948 34.328C61.1948 33.832 60.9548 33.464 60.4748 33.224C60.0108 32.984 59.2668 32.72 58.2428 32.432C57.2508 32.16 56.4428 31.896 55.8188 31.64C55.1948 31.384 54.6508 30.992 54.1868 30.464C53.7388 29.936 53.5148 29.24 53.5148 28.376C53.5148 27.672 53.7228 27.032 54.1388 26.456C54.5548 25.864 55.1468 25.4 55.9148 25.064C56.6988 24.728 57.5948 24.56 58.6028 24.56C60.1068 24.56 61.3148 24.944 62.2268 25.712C63.1548 26.464 63.6508 27.496 63.7148 28.808H60.9788C60.9308 28.216 60.6908 27.744 60.2588 27.392C59.8268 27.04 59.2428 26.864 58.5068 26.864C57.7868 26.864 57.2348 27 56.8508 27.272C56.4668 27.544 56.2748 27.904 56.2748 28.352C56.2748 28.704 56.4028 29 56.6588 29.24C56.9148 29.48 57.2268 29.672 57.5948 29.816C57.9628 29.944 58.5068 30.112 59.2268 30.32C60.1868 30.576 60.9708 30.84 61.5788 31.112C62.2028 31.368 62.7388 31.752 63.1868 32.264C63.6348 32.776 63.8668 33.456 63.8828 34.304C63.8828 35.056 63.6748 35.728 63.2588 36.32C62.8428 36.912 62.2508 37.376 61.4828 37.712C60.7308 38.048 59.8428 38.216 58.8188 38.216ZM85.1454 26.12C84.7134 25.288 84.1134 24.664 83.3454 24.248C82.5774 23.816 81.6894 23.6 80.6814 23.6C79.5774 23.6 78.5934 23.848 77.7294 24.344C76.8654 24.84 76.1854 25.544 75.6894 26.456C75.2094 27.368 74.9694 28.424 74.9694 29.624C74.9694 30.824 75.2094 31.888 75.6894 32.816C76.1854 33.728 76.8654 34.432 77.7294 34.928C78.5934 35.424 79.5774 35.672 80.6814 35.672C82.1694 35.672 83.3774 35.256 84.3054 34.424C85.2334 33.592 85.8014 32.464 86.0094 31.04H79.7454V28.856H88.9374V30.992C88.7614 32.288 88.2974 33.48 87.5454 34.568C86.8094 35.656 85.8414 36.528 84.6414 37.184C83.4574 37.824 82.1374 38.144 80.6814 38.144C79.1134 38.144 77.6814 37.784 76.3854 37.064C75.0894 36.328 74.0574 35.312 73.2894 34.016C72.5374 32.72 72.1614 31.256 72.1614 29.624C72.1614 27.992 72.5374 26.528 73.2894 25.232C74.0574 23.936 75.0894 22.928 76.3854 22.208C77.6974 21.472 79.1294 21.104 80.6814 21.104C82.4574 21.104 84.0334 21.544 85.4094 22.424C86.8014 23.288 87.8094 24.52 88.4334 26.12H85.1454ZM103.756 31.064C103.756 31.56 103.724 32.008 103.66 32.408H93.5559C93.6359 33.464 94.0279 34.312 94.7319 34.952C95.4359 35.592 96.2999 35.912 97.3239 35.912C98.7959 35.912 99.8359 35.296 100.444 34.064H103.396C102.996 35.28 102.268 36.28 101.212 37.064C100.172 37.832 98.8759 38.216 97.3239 38.216C96.0599 38.216 94.9239 37.936 93.9159 37.376C92.9239 36.8 92.1399 36 91.5639 34.976C91.0039 33.936 90.7239 32.736 90.7239 31.376C90.7239 30.016 90.9959 28.824 91.5399 27.8C92.0999 26.76 92.8759 25.96 93.8679 25.4C94.8759 24.84 96.0279 24.56 97.3239 24.56C98.5719 24.56 99.6839 24.832 100.66 25.376C101.636 25.92 102.396 26.688 102.94 27.68C103.484 28.656 103.756 29.784 103.756 31.064ZM100.9 30.2C100.884 29.192 100.524 28.384 99.8199 27.776C99.1159 27.168 98.2439 26.864 97.2039 26.864C96.2599 26.864 95.4519 27.168 94.7799 27.776C94.1079 28.368 93.7079 29.176 93.5799 30.2H100.9ZM109.64 27.008V34.328C109.64 34.824 109.752 35.184 109.976 35.408C110.216 35.616 110.616 35.72 111.176 35.72H112.856V38H110.696C109.464 38 108.52 37.712 107.864 37.136C107.208 36.56 106.88 35.624 106.88 34.328V27.008H105.32V24.776H106.88V21.488H109.64V24.776H112.856V27.008H109.64ZM127.109 38.168C125.989 38.168 124.981 37.976 124.085 37.592C123.189 37.192 122.485 36.632 121.973 35.912C121.461 35.192 121.205 34.352 121.205 33.392H124.133C124.197 34.112 124.477 34.704 124.973 35.168C125.485 35.632 126.197 35.864 127.109 35.864C128.053 35.864 128.789 35.64 129.317 35.192C129.845 34.728 130.109 34.136 130.109 33.416C130.109 32.856 129.941 32.4 129.605 32.048C129.285 31.696 128.877 31.424 128.381 31.232C127.901 31.04 127.229 30.832 126.365 30.608C125.277 30.32 124.389 30.032 123.701 29.744C123.029 29.44 122.453 28.976 121.973 28.352C121.493 27.728 121.253 26.896 121.253 25.856C121.253 24.896 121.493 24.056 121.973 23.336C122.453 22.616 123.125 22.064 123.989 21.68C124.853 21.296 125.853 21.104 126.989 21.104C128.605 21.104 129.925 21.512 130.949 22.328C131.989 23.128 132.565 24.232 132.677 25.64H129.653C129.605 25.032 129.317 24.512 128.789 24.08C128.261 23.648 127.565 23.432 126.701 23.432C125.917 23.432 125.277 23.632 124.781 24.032C124.285 24.432 124.037 25.008 124.037 25.76C124.037 26.272 124.189 26.696 124.493 27.032C124.813 27.352 125.213 27.608 125.693 27.8C126.173 27.992 126.829 28.2 127.661 28.424C128.765 28.728 129.661 29.032 130.349 29.336C131.053 29.64 131.645 30.112 132.125 30.752C132.621 31.376 132.869 32.216 132.869 33.272C132.869 34.12 132.637 34.92 132.173 35.672C131.725 36.424 131.061 37.032 130.181 37.496C129.317 37.944 128.293 38.168 127.109 38.168ZM139.289 27.008V34.328C139.289 34.824 139.401 35.184 139.625 35.408C139.865 35.616 140.265 35.72 140.825 35.72H142.505V38H140.345C139.113 38 138.169 37.712 137.513 37.136C136.857 36.56 136.529 35.624 136.529 34.328V27.008H134.969V24.776H136.529V21.488H139.289V24.776H142.505V27.008H139.289ZM144.115 31.328C144.115 30 144.387 28.824 144.931 27.8C145.491 26.776 146.243 25.984 147.187 25.424C148.147 24.848 149.203 24.56 150.355 24.56C151.395 24.56 152.299 24.768 153.067 25.184C153.851 25.584 154.475 26.088 154.939 26.696V24.776H157.699V38H154.939V36.032C154.475 36.656 153.843 37.176 153.043 37.592C152.243 38.008 151.331 38.216 150.307 38.216C149.171 38.216 148.131 37.928 147.187 37.352C146.243 36.76 145.491 35.944 144.931 34.904C144.387 33.848 144.115 32.656 144.115 31.328ZM154.939 31.376C154.939 30.464 154.747 29.672 154.363 29C153.995 28.328 153.507 27.816 152.899 27.464C152.291 27.112 151.635 26.936 150.931 26.936C150.227 26.936 149.571 27.112 148.963 27.464C148.355 27.8 147.859 28.304 147.475 28.976C147.107 29.632 146.923 30.416 146.923 31.328C146.923 32.24 147.107 33.04 147.475 33.728C147.859 34.416 148.355 34.944 148.963 35.312C149.587 35.664 150.243 35.84 150.931 35.84C151.635 35.84 152.291 35.664 152.899 35.312C153.507 34.96 153.995 34.448 154.363 33.776C154.747 33.088 154.939 32.288 154.939 31.376ZM164.028 26.696C164.428 26.024 164.956 25.504 165.612 25.136C166.284 24.752 167.076 24.56 167.988 24.56V27.392H167.292C166.22 27.392 165.404 27.664 164.844 28.208C164.3 28.752 164.028 29.696 164.028 31.04V38H161.292V24.776H164.028V26.696ZM173.695 27.008V34.328C173.695 34.824 173.807 35.184 174.031 35.408C174.271 35.616 174.671 35.72 175.231 35.72H176.911V38H174.751C173.519 38 172.575 37.712 171.919 37.136C171.263 36.56 170.935 35.624 170.935 34.328V27.008H169.375V24.776H170.935V21.488H173.695V24.776H176.911V27.008H173.695ZM191.553 31.064C191.553 31.56 191.521 32.008 191.457 32.408H181.353C181.433 33.464 181.825 34.312 182.529 34.952C183.233 35.592 184.097 35.912 185.121 35.912C186.593 35.912 187.633 35.296 188.241 34.064H191.193C190.793 35.28 190.065 36.28 189.009 37.064C187.969 37.832 186.673 38.216 185.121 38.216C183.857 38.216 182.721 37.936 181.713 37.376C180.721 36.8 179.937 36 179.361 34.976C178.801 33.936 178.521 32.736 178.521 31.376C178.521 30.016 178.793 28.824 179.337 27.8C179.897 26.76 180.673 25.96 181.665 25.4C182.673 24.84 183.825 24.56 185.121 24.56C186.369 24.56 187.481 24.832 188.457 25.376C189.433 25.92 190.193 26.688 190.737 27.68C191.281 28.656 191.553 29.784 191.553 31.064ZM188.697 30.2C188.681 29.192 188.321 28.384 187.617 27.776C186.913 27.168 186.041 26.864 185.001 26.864C184.057 26.864 183.249 27.168 182.577 27.776C181.905 28.368 181.505 29.176 181.377 30.2H188.697ZM193.333 31.328C193.333 30 193.605 28.824 194.149 27.8C194.709 26.776 195.461 25.984 196.405 25.424C197.365 24.848 198.429 24.56 199.597 24.56C200.461 24.56 201.309 24.752 202.141 25.136C202.989 25.504 203.661 26 204.157 26.624V20.24H206.917V38H204.157V36.008C203.709 36.648 203.085 37.176 202.285 37.592C201.501 38.008 200.597 38.216 199.573 38.216C198.421 38.216 197.365 37.928 196.405 37.352C195.461 36.76 194.709 35.944 194.149 34.904C193.605 33.848 193.333 32.656 193.333 31.328ZM204.157 31.376C204.157 30.464 203.965 29.672 203.581 29C203.213 28.328 202.725 27.816 202.117 27.464C201.509 27.112 200.853 26.936 200.149 26.936C199.445 26.936 198.789 27.112 198.181 27.464C197.573 27.8 197.077 28.304 196.693 28.976C196.325 29.632 196.141 30.416 196.141 31.328C196.141 32.24 196.325 33.04 196.693 33.728C197.077 34.416 197.573 34.944 198.181 35.312C198.805 35.664 199.461 35.84 200.149 35.84C200.853 35.84 201.509 35.664 202.117 35.312C202.725 34.96 203.213 34.448 203.581 33.776C203.965 33.088 204.157 32.288 204.157 31.376Z" fill="white"/>
</svg>
