<svg width="8859" height="5907" viewBox="0 0 8859 5907" fill="none" xmlns="http://www.w3.org/2000/svg">
<path d="M2301.13 1402.97H685.926V298.324H2301.13V1402.97ZM698.68 1390.22H2288.37V311.079H698.68V1390.22Z" fill="#EBEBEB"/>
<path d="M812.194 369.875C812.194 376.232 810.309 382.446 806.777 387.732C803.245 393.017 798.226 397.137 792.353 399.569C786.48 402.002 780.017 402.639 773.783 401.398C767.548 400.158 761.821 397.097 757.326 392.602C752.831 388.107 749.77 382.38 748.53 376.146C747.29 369.911 747.926 363.448 750.359 357.575C752.791 351.702 756.911 346.683 762.196 343.151C767.482 339.619 773.696 337.734 780.053 337.734C788.577 337.734 796.752 341.121 802.78 347.148C808.807 353.176 812.194 361.351 812.194 369.875Z" fill="#A6A6A6"/>
<path d="M943.562 369.875C943.587 376.268 941.713 382.525 938.177 387.851C934.641 393.177 929.602 397.332 923.701 399.79C917.8 402.248 911.301 402.898 905.03 401.657C898.758 400.416 892.997 397.34 888.477 392.82C883.956 388.299 880.88 382.538 879.639 376.267C878.398 369.995 879.048 363.497 881.506 357.595C883.964 351.694 888.12 346.656 893.446 343.12C898.772 339.584 905.028 337.709 911.421 337.735C919.945 337.735 928.12 341.121 934.148 347.148C940.176 353.176 943.562 361.351 943.562 369.875Z" fill="#EBEBEB"/>
<path d="M1074.93 369.875C1074.93 376.232 1073.05 382.446 1069.52 387.732C1065.98 393.017 1060.96 397.137 1055.09 399.569C1049.22 402.002 1042.76 402.639 1036.52 401.398C1030.29 400.158 1024.56 397.097 1020.06 392.602C1015.57 388.107 1012.51 382.38 1011.27 376.146C1010.03 369.911 1010.66 363.448 1013.1 357.575C1015.53 351.702 1019.65 346.683 1024.93 343.151C1030.22 339.619 1036.43 337.734 1042.79 337.734C1051.32 337.734 1059.49 341.121 1065.52 347.148C1071.55 353.176 1074.93 361.351 1074.93 369.875Z" fill="#7E57C2"/>
<path d="M2294.75 426.123H692.303V438.877H2294.75V426.123Z" fill="#EBEBEB"/>
<path d="M588.228 1462.54C593.844 1459.07 600.314 1457.24 606.913 1457.24C613.512 1457.24 619.982 1459.07 625.598 1462.54C628.659 1464.49 631.848 1466.28 635.164 1467.89C638.352 1469.68 641.669 1471.34 644.985 1472.99C650.951 1475.7 656.052 1480 659.722 1485.43C663.391 1490.85 665.486 1497.19 665.774 1503.73L667.177 1549.65L816.53 1544.93L815.127 1499.14C814.934 1492.53 816.586 1486 819.898 1480.28C823.209 1474.56 828.05 1469.87 833.876 1466.74C840.427 1463.24 846.772 1459.37 852.879 1455.14C858.209 1451.33 864.494 1449.09 871.029 1448.66C877.563 1448.24 884.086 1449.64 889.867 1452.71L930.171 1474.4L1000.83 1342.65L960.143 1321.35C954.375 1318.24 949.588 1313.59 946.321 1307.91C943.054 1302.23 941.436 1295.75 941.649 1289.2C941.778 1281.76 941.522 1274.31 940.884 1266.88C940.257 1260.34 941.464 1253.74 944.369 1247.84C947.275 1241.94 951.765 1236.96 957.337 1233.47L995.6 1209.36L916.906 1081.82L877.75 1106.05C872.173 1109.5 865.747 1111.32 859.193 1111.32C852.638 1111.32 846.213 1109.5 840.635 1106.05C837.574 1104.18 834.386 1102.4 831.07 1100.7C827.881 1098.91 824.565 1097.25 821.249 1095.72C815.254 1092.99 810.136 1088.64 806.465 1083.17C802.795 1077.7 800.715 1071.31 800.459 1064.73L799.056 1018.94L649.704 1023.53L651.107 1069.19C651.302 1075.77 649.664 1082.27 646.376 1087.97C643.087 1093.67 638.278 1098.34 632.485 1101.46C625.981 1105.03 619.731 1108.99 613.482 1113.2C608.126 1117 601.821 1119.24 595.267 1119.66C588.714 1120.09 582.171 1118.69 576.367 1115.62L536.063 1094.06L465.404 1225.69L505.708 1247.37C511.506 1250.47 516.314 1255.15 519.584 1260.85C522.854 1266.56 524.454 1273.07 524.202 1279.64C524.574 1287.2 525.34 1294.73 526.497 1302.21C527.095 1308.76 525.875 1315.34 522.972 1321.24C520.069 1327.13 515.596 1332.11 510.044 1335.63L471.781 1359.74L550.475 1486.64L588.228 1462.54ZM625.726 1226.71C637.172 1205.41 654.673 1187.99 676.018 1176.63C697.363 1165.28 721.594 1160.5 745.651 1162.91C769.707 1165.32 792.51 1174.81 811.179 1190.17C829.848 1205.53 843.546 1226.08 850.542 1249.22C857.539 1272.37 857.519 1297.06 850.487 1320.2C843.455 1343.33 829.725 1363.86 811.032 1379.19C792.339 1394.52 769.521 1403.97 745.461 1406.34C721.401 1408.71 697.177 1403.9 675.85 1392.51C647.233 1377.16 625.881 1351.07 616.482 1319.98C607.084 1288.89 610.409 1255.35 625.726 1226.71Z" fill="#EBEBEB"/>
<path d="M7979.59 2838.08C7985.18 2834.62 7991.63 2832.78 7998.21 2832.78C8004.79 2832.78 8011.24 2834.62 8016.84 2838.08L8026.4 2843.57L8036.35 2848.54C8042.32 2851.25 8047.42 2855.55 8051.09 2860.98C8054.76 2866.4 8056.85 2872.74 8057.14 2879.28L8058.54 2925.2L8207.89 2920.48L8206.49 2874.69C8206.32 2868.12 8207.98 2861.63 8211.29 2855.95C8214.6 2850.27 8219.43 2845.63 8225.24 2842.55C8231.72 2838.96 8238.02 2835.04 8244.12 2830.82C8249.48 2827.04 8255.79 2824.82 8262.33 2824.39C8268.88 2823.96 8275.42 2825.35 8281.23 2828.39L8321.53 2850.07L8392.19 2718.32L8351.89 2696.77C8346.11 2693.64 8341.32 2688.96 8338.05 2683.26C8334.79 2677.56 8333.17 2671.07 8333.4 2664.5C8333.52 2657.09 8333.27 2649.69 8332.63 2642.31C8332.01 2635.74 8333.22 2629.13 8336.12 2623.21C8339.03 2617.29 8343.51 2612.29 8349.08 2608.76L8387.35 2584.66L8308.65 2457.11L8269.5 2481.48C8263.92 2484.92 8257.49 2486.74 8250.94 2486.74C8244.39 2486.74 8237.96 2484.92 8232.38 2481.48L8222.82 2476.12C8219.63 2474.33 8216.31 2472.67 8213 2471.14C8207 2468.44 8201.88 2464.12 8198.21 2458.67C8194.54 2453.22 8192.46 2446.85 8192.21 2440.28L8190.8 2394.36L8041.45 2398.95L8042.85 2444.74C8043.06 2451.3 8041.42 2457.79 8038.13 2463.47C8034.84 2469.15 8030.02 2473.79 8024.23 2476.88C8017.66 2480.44 8011.31 2484.41 8005.23 2488.75C7999.86 2492.53 7993.55 2494.74 7987 2495.15C7980.44 2495.55 7973.91 2494.13 7968.11 2491.04L7927.81 2469.49L7857.79 2601.88L7898.09 2623.43C7903.85 2626.58 7908.63 2631.26 7911.89 2636.96C7915.15 2642.65 7916.78 2649.14 7916.59 2655.7C7916.46 2663.15 7916.71 2670.6 7917.35 2678.02C7917.95 2684.58 7916.72 2691.17 7913.79 2697.07C7910.86 2702.97 7906.36 2707.94 7900.77 2711.43L7862.51 2735.54L7941.2 2863.08L7979.59 2838.08ZM8017.09 2601.88C8028.55 2580.58 8046.06 2563.17 8067.41 2551.82C8088.77 2540.48 8113 2535.72 8137.06 2538.14C8161.12 2540.56 8183.92 2550.06 8202.58 2565.44C8221.24 2580.82 8234.92 2601.38 8241.9 2624.53C8248.88 2647.68 8248.85 2672.38 8241.8 2695.5C8234.75 2718.63 8221 2739.15 8202.29 2754.47C8183.58 2769.79 8160.76 2779.22 8136.69 2781.57C8112.63 2783.92 8088.41 2779.09 8067.09 2767.68C8052.9 2760.09 8040.36 2749.78 8030.16 2737.33C8019.97 2724.89 8012.34 2710.55 8007.69 2695.15C8003.05 2679.75 8001.49 2663.58 8003.1 2647.58C8004.71 2631.57 8009.47 2616.04 8017.09 2601.88Z" fill="#EBEBEB"/>
<path d="M889.485 1853.33C893.532 1855.66 896.862 1859.05 899.111 1863.15C901.36 1867.24 902.442 1871.87 902.239 1876.54C902.239 1879.09 902.239 1881.64 902.239 1884.19C902.239 1886.74 902.239 1889.42 902.239 1891.97C902.497 1896.61 901.436 1901.23 899.179 1905.29C896.922 1909.36 893.561 1912.7 889.485 1914.93L861.553 1931L913.973 2021.68L941.777 2005.61C945.716 2003.43 950.177 2002.38 954.674 2002.56C959.172 2002.74 963.534 2004.15 967.286 2006.63C971.622 2009.44 976.214 2011.99 980.805 2014.41C984.923 2016.45 988.393 2019.59 990.826 2023.49C993.259 2027.39 994.559 2031.88 994.58 2036.48V2068.49H1100.44V2036.48C1100.46 2031.88 1101.76 2027.39 1104.19 2023.49C1106.63 2019.59 1110.1 2016.45 1114.22 2014.41C1118.81 2011.99 1123.27 2009.44 1126.97 2006.63C1130.73 2004.16 1135.09 2002.76 1139.58 2002.58C1144.08 2002.4 1148.54 2003.45 1152.48 2005.61L1180.28 2021.68L1232.57 1931L1204.64 1914.93C1200.56 1912.68 1197.19 1909.31 1194.93 1905.23C1192.68 1901.14 1191.62 1896.5 1191.89 1891.84C1191.89 1889.29 1191.89 1886.74 1191.89 1884.19C1191.89 1881.64 1191.89 1879.09 1191.89 1876.54C1191.62 1871.88 1192.68 1867.24 1194.93 1863.16C1197.19 1859.07 1200.56 1855.71 1204.64 1853.45L1232.45 1837.38L1180.15 1746.7L1152.48 1762.77C1148.45 1765 1143.89 1766.09 1139.28 1765.93C1134.68 1765.77 1130.2 1764.37 1126.33 1761.88C1121.97 1759 1117.46 1756.36 1112.81 1753.97C1108.68 1751.95 1105.21 1748.81 1102.77 1744.91C1100.34 1741.01 1099.04 1736.5 1099.04 1731.91V1699.89H994.325V1731.91C994.318 1736.5 993.025 1741.01 990.59 1744.91C988.156 1748.81 984.678 1751.95 980.55 1753.97C975.888 1756.33 971.373 1758.97 967.031 1761.88C963.232 1764.25 958.874 1765.59 954.396 1765.74C949.918 1765.9 945.478 1764.88 941.522 1762.77L914.1 1747.34L861.68 1838.02L889.485 1853.33ZM1047.51 1798.36C1064.49 1798.33 1081.1 1803.34 1095.23 1812.76C1109.37 1822.18 1120.39 1835.57 1126.9 1851.26C1133.42 1866.94 1135.14 1884.2 1131.84 1900.86C1128.54 1917.52 1120.38 1932.82 1108.38 1944.84C1096.38 1956.86 1081.08 1965.05 1064.43 1968.37C1047.78 1971.69 1030.51 1970 1014.82 1963.51C999.127 1957.01 985.714 1946.01 976.276 1931.89C966.839 1917.78 961.801 1901.17 961.801 1884.19C961.835 1861.46 970.872 1839.67 986.934 1823.58C1003 1807.49 1024.78 1798.42 1047.51 1798.36Z" fill="#EBEBEB"/>
<path d="M815.509 3163.06C815.509 3148.65 817.422 3110.26 817.422 3093.94C817.422 3023.92 791.913 2991.9 727.249 2990.37C696.639 2988.46 678.4 2970.22 678.4 2944.33C678.4 2918.44 696.639 2900.2 727.249 2898.29C792.551 2895.35 817.422 2864.61 817.422 2793.7C817.422 2777.38 815.509 2738.98 815.509 2724.57C815.509 2631.59 854.92 2571.52 1003.63 2539.51C1013.75 2537.15 1024.38 2538.68 1033.42 2543.78C1042.46 2548.89 1049.26 2557.2 1052.47 2567.08C1055.67 2576.95 1055.06 2587.67 1050.74 2597.12C1046.42 2606.56 1038.71 2614.04 1029.14 2618.07C936.037 2646.9 922.645 2676.62 922.645 2741.92C922.645 2761.05 924.558 2792.94 924.558 2812.83C924.558 2887.7 888.081 2924.18 824.692 2944.33C888.463 2965.37 924.558 3000.96 924.558 3075.7C924.558 3095.85 922.645 3127.48 922.645 3146.74C922.645 3211.91 935.399 3241.76 1029.14 3270.46C1038.92 3274.35 1046.85 3281.82 1051.33 3291.34C1055.8 3300.87 1056.48 3311.74 1053.24 3321.75C1049.99 3331.76 1043.06 3340.16 1033.85 3345.25C1024.64 3350.34 1013.84 3351.73 1003.63 3349.15C854.92 3316.12 815.509 3256.68 815.509 3163.06Z" fill="#EBEBEB"/>
<path d="M1377.72 2724.19C1377.72 2738.6 1375.81 2776.99 1375.81 2793.32C1375.81 2864.23 1401.31 2895.35 1467 2897.9C1496.72 2899.82 1514.95 2918.06 1514.95 2943.95C1514.95 2969.84 1496.72 2988.08 1467 2989.99C1401.7 2991.9 1375.81 3023.53 1375.81 3093.55C1375.81 3109.88 1377.72 3148.27 1377.72 3162.68C1377.72 3256.68 1338.44 3315.73 1189.72 3348.77C1179.28 3352.15 1167.93 3351.25 1158.16 3346.26C1148.39 3341.27 1141 3332.61 1137.62 3322.18C1134.24 3311.74 1135.14 3300.39 1140.12 3290.62C1145.11 3280.85 1153.78 3273.46 1164.21 3270.07C1256.3 3241.38 1269.82 3211.53 1269.82 3146.36C1269.82 3127.1 1267.9 3095.34 1267.9 3075.32C1267.9 3000.58 1304.25 2964.1 1367.64 2943.95C1303.87 2922.77 1267.9 2887.32 1267.9 2812.45C1267.9 2792.3 1269.82 2760.67 1269.82 2741.54C1269.82 2676.23 1256.3 2646.52 1164.21 2617.69C1155.91 2615.1 1148.69 2609.85 1143.67 2602.75C1138.65 2595.65 1136.1 2587.1 1136.41 2578.41C1136.25 2571.96 1137.65 2565.57 1140.47 2559.78C1143.3 2553.98 1147.47 2548.95 1152.64 2545.1C1157.82 2541.25 1163.84 2538.7 1170.2 2537.66C1176.56 2536.62 1183.08 2537.12 1189.21 2539.13C1338.44 2571.65 1377.72 2631.21 1377.72 2724.19Z" fill="#EBEBEB"/>
<path d="M7569.29 1202.22C7576.77 1209.28 7581.95 1218.44 7584.14 1228.49C7586.33 1238.55 7585.43 1249.03 7581.55 1258.56C7577.67 1268.09 7571.01 1276.23 7562.42 1281.9C7553.84 1287.58 7543.74 1290.52 7533.45 1290.35C7519.27 1290.63 7505.54 1285.37 7495.18 1275.68L7265.61 1042.79C7263.06 1042.03 7262.29 1040.37 7261.53 1037.94C7260.76 1037.27 7259.9 1036.72 7258.98 1036.29C7257.89 1034.23 7257.08 1032.05 7256.55 1029.78C7255.91 1029.47 7255.35 1029.01 7254.92 1028.43C7254.5 1027.85 7254.23 1027.18 7254.13 1026.47C7253.36 1024.81 7253.36 1022.38 7252.47 1021.62C7251.58 1020.85 7250.81 1018.3 7250.81 1017.54V1011.8C7250.81 1010.14 7250.05 1009.38 7250.05 1006.82C7250.05 1004.27 7250.81 1003.64 7250.81 1002.74V997.131C7250.81 995.473 7252.47 994.58 7252.47 993.815C7252.47 993.05 7253.36 989.733 7254.13 987.31C7254.89 984.887 7254.89 986.417 7254.89 985.652C7254.89 984.887 7257.44 979.913 7258.98 978.255C7258.98 977.815 7259.15 977.393 7259.46 977.082C7259.77 976.771 7260.19 976.597 7260.63 976.597C7261.8 974.339 7263.51 972.41 7265.61 970.985L7495.18 738.091C7505.08 728.642 7518.24 723.369 7531.92 723.369C7545.6 723.369 7558.75 728.642 7568.65 738.091C7573.59 742.85 7577.51 748.556 7580.2 754.867C7582.88 761.179 7584.26 767.966 7584.26 774.824C7584.26 781.681 7582.88 788.469 7580.2 794.78C7577.51 801.091 7573.59 806.797 7568.65 811.556L7375.55 1006.82L7569.29 1202.22Z" fill="#EBEBEB"/>
<path d="M7777.69 1228.37L7977.81 752.505C7980.15 747.016 7983.56 742.045 7987.84 737.878C7992.11 733.712 7997.17 730.431 8002.72 728.227C8008.27 726.022 8014.19 724.936 8020.16 725.031C8026.13 725.126 8032.02 726.401 8037.5 728.782C8042.82 731.083 8047.63 734.412 8051.65 738.578C8055.68 742.743 8058.85 747.663 8060.97 753.055C8063.09 758.447 8064.12 764.205 8064.01 769.998C8063.9 775.792 8062.65 781.506 8060.33 786.814L7860.21 1263.44C7856.65 1271.51 7850.8 1278.36 7843.39 1283.14C7835.98 1287.93 7827.33 1290.43 7818.51 1290.35C7812.9 1290.46 7807.34 1289.37 7802.18 1287.16C7796.63 1285.01 7791.58 1281.76 7787.32 1277.61C7783.06 1273.45 7779.69 1268.48 7777.4 1262.99C7775.11 1257.5 7773.96 1251.6 7774.01 1245.65C7774.06 1239.7 7775.31 1233.82 7777.69 1228.37Z" fill="#EBEBEB"/>
<path d="M8455.84 1036.29C8455.84 1036.49 8455.76 1036.68 8455.61 1036.83C8455.47 1036.97 8455.27 1037.05 8455.07 1037.05C8453.36 1039.15 8451.43 1041.08 8449.33 1042.79L8219.75 1275.68C8209.82 1285.11 8196.65 1290.37 8182.96 1290.37C8169.26 1290.37 8156.09 1285.11 8146.16 1275.68C8141.32 1270.87 8137.48 1265.15 8134.85 1258.85C8132.23 1252.54 8130.88 1245.78 8130.88 1238.95C8130.88 1232.12 8132.23 1225.36 8134.85 1219.06C8137.48 1212.76 8141.32 1207.03 8146.16 1202.22L8339.77 1006.82L8146.16 811.556C8141.32 806.744 8137.48 801.021 8134.85 794.717C8132.23 788.413 8130.88 781.652 8130.88 774.824C8130.88 767.996 8132.23 761.236 8134.85 754.931C8137.48 748.627 8141.32 742.904 8146.16 738.092C8156.08 728.634 8169.26 723.357 8182.96 723.357C8196.66 723.357 8209.84 728.634 8219.75 738.092L8449.33 970.985C8451.43 972.659 8453.35 974.539 8455.07 976.597C8455.84 976.597 8455.84 978.255 8455.84 978.255C8457.35 980.633 8458.71 983.103 8459.92 985.652C8459.92 986.418 8460.81 986.418 8460.81 987.311C8461.33 989.822 8462.14 992.262 8463.23 994.58C8463.23 995.473 8464 995.473 8464 997.131V1002.74C8464 1003.64 8464.89 1006.06 8464.89 1006.82C8464.89 1007.59 8464 1010.14 8464 1010.91V1017.54C8464 1018.3 8463.23 1018.3 8463.23 1019.2C8462.25 1021.56 8461.44 1023.99 8460.81 1026.47C8460.81 1027.36 8459.92 1027.36 8459.92 1028.89C8459.92 1030.42 8457.49 1033.1 8455.84 1036.29Z" fill="#EBEBEB"/>
<path d="M405.586 3969.14C2983.48 3961.23 5875.13 3961.23 8453.54 3969.14C5875.64 3976.92 2983.99 3976.92 405.586 3969.14Z" fill="#263238"/>
<path d="M8459.66 2076.02C8161.72 2479.56 7851.03 2947.77 7775.39 3453.48C7774.5 3461.13 7786.75 3463.68 7788.15 3456.03C7822.41 3318.05 7866.43 3182.68 7919.9 3050.95C8115.81 2997 8308.01 2952.75 8410.94 2758.37C8515.78 2558.51 8502.52 2297.94 8482.49 2080.22C8481.85 2068.87 8466.04 2068.24 8459.66 2076.02Z" fill="#7E57C2"/>
<path d="M7923.98 3047.38C8057.9 2747.02 8230.09 2445.51 8448.06 2198.59C8449.46 2196.93 8451.76 2199.22 8450.48 2200.88C8307.5 2376.76 8198.84 2568.33 8093.36 2763.22C8191.95 2663.1 8300.11 2573.43 8393.6 2467.19C8395.38 2465.15 8398.31 2468.21 8396.53 2470.25C8303.81 2581.6 8202.41 2702.51 8081.63 2784.9C8049.15 2844.42 8016.37 2904.37 7983.29 2964.74C7991.45 2960.14 7999.74 2956.19 8008.16 2951.98C8009.56 2951.34 8010.84 2953.51 8009.44 2954.28C8000.25 2958.87 7991.07 2963.84 7981.51 2967.8C7965.82 2996.24 7950.38 3024.68 7934.19 3053C7929.59 3059.25 7920.79 3053.76 7923.98 3047.38Z" fill="#263238"/>
<path d="M8023.21 2942.54C8103.34 2897.61 8179.8 2846.44 8251.89 2789.49C8253.81 2787.96 8256.61 2790.64 8254.7 2792.3C8184.73 2852.89 8107.99 2905.18 8026.02 2948.15C8022.83 2950.07 8019.51 2944.71 8023.21 2942.54Z" fill="#263238"/>
<path d="M7741.34 3378.48C7741.98 3384.61 7752.31 3384.61 7752.18 3378.48C7753.84 3211.91 7752.18 3044.58 7754.86 2877.11C7797.59 2791.02 7889.16 2743.32 7952.93 2674.32C7998.75 2623.76 8038.63 2568.13 8071.8 2508.51C8150.5 2368.22 8193.23 2209.04 8209.55 2049.36C8227.15 1870.8 8159.55 1283.08 8084.43 1303.49C8045.53 1314.08 7919.39 1605.38 7885.97 1701.68C7831.72 1860.49 7792.01 2023.91 7767.36 2189.91C7706.39 2581.34 7711.5 2984.5 7741.34 3378.48Z" fill="#7E57C2"/>
<path d="M7740.19 2659.78L7740.96 2659.02C7750.01 2448.19 7797.59 2235.32 7841.97 2030.87C7889.93 1810.6 7945.92 1603.09 8058.8 1406.67C8059.25 1405.94 8059.97 1405.42 8060.81 1405.21C8061.64 1405 8062.52 1405.12 8063.27 1405.55C8064.01 1405.98 8064.56 1406.69 8064.8 1407.52C8065.03 1408.34 8064.94 1409.23 8064.53 1409.99C7988.87 1562.75 7930.31 1723.41 7889.93 1889.04C7897.58 1877.18 7906.76 1865.95 7914.67 1854.73C7917.73 1850.27 7925.13 1854.73 7922.07 1858.94C7911.9 1876.71 7900.02 1893.46 7886.61 1908.94C7886.19 1909.34 7885.66 1909.6 7885.08 1909.7C7846.05 2067.09 7818.12 2228.56 7794.14 2388.88C7795.93 2386.84 7797.59 2384.54 7799.37 2382.63C7799.66 2382.41 7800.01 2382.29 7800.37 2382.29C7800.73 2382.29 7801.08 2382.41 7801.37 2382.62C7801.66 2382.84 7801.87 2383.14 7801.97 2383.49C7802.07 2383.84 7802.05 2384.21 7801.92 2384.54C7798.86 2389.9 7795.55 2395.13 7792.36 2400.49C7779.6 2481.99 7769.02 2563.36 7757.79 2644.09C7902.94 2519.99 8027.04 2373.7 8096.93 2193.48C8096.99 2193.35 8097.09 2193.23 8097.21 2193.15C8097.34 2193.07 8097.48 2193.02 8097.63 2193.02C8097.78 2193.02 8097.93 2193.07 8098.05 2193.15C8098.18 2193.23 8098.27 2193.35 8098.33 2193.48C8029.84 2380.33 7921.81 2546.52 7755.5 2660.04L7746.32 2725.08C7745.68 2729.55 7738.54 2728.4 7738.54 2724.06C7738.54 2704.8 7739.55 2685.8 7740.32 2666.29C7739.85 2665.89 7739.47 2665.39 7739.21 2664.84C7738.94 2664.28 7738.8 2663.68 7738.79 2663.06C7738.78 2662.45 7738.9 2661.84 7739.14 2661.27C7739.38 2660.7 7739.74 2660.2 7740.19 2659.78Z" fill="#263238"/>
<path d="M7809.19 2354.19C7920.16 2188.38 8023.72 2027.8 8104.97 1844.78C8105.86 1842.74 8109.43 1844.78 8108.54 1846.31C8040.17 2028.19 7944.39 2212.49 7815.19 2358.52C7811.49 2361.46 7806.26 2357.63 7809.19 2354.19Z" fill="#263238"/>
<path d="M7956 1803.84C8001.91 1722.59 8050.38 1643.39 8093.74 1560.49C8094.89 1558.19 8098.08 1560.49 8097.06 1562.4C8061.66 1648.99 8016.74 1731.38 7963.14 1808.05C7960.08 1812.26 7953.32 1808.56 7956 1803.84Z" fill="#263238"/>
<path d="M7938.01 1839.3C7938.15 1839.36 7938.27 1839.45 7938.35 1839.58C7938.43 1839.7 7938.47 1839.85 7938.47 1840C7938.47 1840.15 7938.43 1840.29 7938.35 1840.42C7938.27 1840.54 7938.15 1840.64 7938.01 1840.7C7937.88 1840.64 7937.76 1840.54 7937.68 1840.42C7937.6 1840.29 7937.55 1840.15 7937.55 1840C7937.55 1839.85 7937.6 1839.7 7937.68 1839.58C7937.76 1839.45 7937.88 1839.36 7938.01 1839.3Z" fill="#263238"/>
<path d="M7628.59 2896.63C7626.34 3007.06 7613.31 3117.02 7589.69 3224.92C7591.35 3236.79 7593.01 3248.65 7594.79 3260.89C7628.78 3141.67 7648.47 3018.84 7653.46 2894.97C7654.47 2893.25 7655 2891.29 7655 2889.29C7655 2887.3 7654.47 2885.34 7653.46 2883.62C7658.59 2717.46 7646.67 2551.21 7617.88 2387.48C7566.22 2081.37 7453.48 1787.39 7239.97 1557.81C7238.2 1556.31 7236.11 1555.23 7233.86 1554.66C7231.62 1554.08 7229.27 1554.03 7226.99 1554.49C7224.72 1554.96 7222.58 1555.94 7220.74 1557.35C7218.9 1558.77 7217.41 1560.58 7216.37 1562.66C7130.16 1781.78 7160.26 2043.37 7233.72 2261.97C7273.68 2380.17 7330.7 2491.88 7402.97 2593.59C7475.67 2697.02 7569.03 2784.14 7628.59 2896.63Z" fill="#7E57C2"/>
<path d="M7264.59 1660.35C7467 1988.91 7607.8 2378.29 7625.02 2766.41C7625.02 2773.29 7613.8 2775.08 7612.27 2768.06C7607.55 2733.12 7602.19 2698.55 7596.58 2664.24C7512.91 2584.02 7426.95 2499.33 7367 2399.21C7365.86 2397.43 7368.41 2395.38 7369.81 2396.91C7442.64 2480.2 7510.11 2565.53 7592.88 2639.25C7578.51 2553.37 7561.21 2468.89 7540.97 2385.82C7535.49 2379.57 7530.26 2373.06 7524.9 2366.94C7521.46 2362.86 7527.2 2356.87 7530.9 2360.95L7535.74 2366.3C7507.22 2252.31 7471.92 2140.13 7430.01 2030.36C7378.99 1968.88 7320.83 1915.57 7283.34 1841.72C7283.13 1841.37 7283.08 1840.94 7283.19 1840.55C7283.29 1840.16 7283.55 1839.82 7283.91 1839.62C7284.26 1839.41 7284.69 1839.36 7285.08 1839.47C7285.47 1839.58 7285.81 1839.84 7286.01 1840.19C7315.12 1883.14 7346.37 1924.6 7379.63 1964.42C7393.28 1980.1 7408.2 1994.77 7422.36 2009.95C7375.63 1890.91 7320.22 1775.47 7256.55 1664.56C7255.99 1663.5 7255.88 1662.25 7256.24 1661.11C7256.6 1659.96 7257.4 1659 7258.46 1658.44C7259.53 1657.88 7260.77 1657.77 7261.92 1658.13C7263.07 1658.49 7264.03 1659.29 7264.59 1660.35Z" fill="#263238"/>
<path d="M7305.53 2066.2C7370.96 2154.33 7445.82 2238.25 7506.28 2329.32C7508.07 2331.87 7504.24 2334.55 7502.07 2332.51C7423.89 2259.3 7357.82 2159.17 7301.06 2068.87C7299.02 2065.3 7303.61 2063.01 7305.53 2066.2Z" fill="#263238"/>
<path d="M7515.84 2349.08L7518.65 2351.89C7520.56 2353.8 7517.5 2356.74 7515.59 2354.82L7512.78 2352.02C7510.49 2350.11 7513.55 2346.79 7515.84 2349.08Z" fill="#263238"/>
<path d="M6947.51 2291.82C6963.71 2460.81 7052.61 2662.71 7161.02 2792.93C7208.73 2849.55 7267.72 2895.59 7334.22 2928.13C7409.22 2965.24 7487.28 3007.97 7565.46 3038.45C7602.29 3132.3 7629.68 3229.59 7647.21 3328.87C7649.77 3320.45 7652.19 3311.65 7654.74 3303.36C7604.87 2875.58 7328.1 2509.79 6973.92 2274.98C6971.15 2273.19 6967.92 2272.23 6964.62 2272.22C6961.32 2272.21 6958.09 2273.15 6955.31 2274.93C6952.53 2276.7 6950.32 2279.23 6948.93 2282.23C6947.55 2285.22 6947.06 2288.55 6947.51 2291.82Z" fill="#7E57C2"/>
<path d="M7069.45 2418.34C7066.89 2416.05 7070.34 2411.58 7073.02 2413.62C7260.76 2552.64 7430.14 2755.44 7524.39 2969.84C7526.94 2975.7 7518.91 2980.81 7515.59 2974.94C7499.14 2946.11 7482.3 2918.05 7464.57 2890.5C7383.71 2875.33 7307.19 2818.44 7247.75 2764.36C7246.09 2762.96 7248.52 2760.54 7250.05 2761.94C7280.92 2790.09 7315.2 2814.26 7352.08 2833.88C7385.11 2850.58 7420.57 2861.17 7454.88 2874.56C7424.91 2826.99 7393.66 2781.33 7361.14 2737.07C7274.02 2707.48 7191.25 2654.04 7118.8 2600.6C7116.51 2598.94 7118.8 2595.12 7121.1 2596.65C7194.15 2640.85 7269.51 2681.12 7346.85 2717.3C7297.54 2652.17 7244.3 2590.11 7187.42 2531.47C7160 2516.93 7132.07 2502.39 7105.41 2486.83C7103.24 2485.56 7105.41 2481.86 7107.2 2482.75C7129.33 2490.46 7150.44 2500.82 7170.08 2513.62C7138.06 2481.35 7105.03 2449.46 7069.45 2418.34Z" fill="#263238"/>
<path d="M7077.35 2566.04C7082.16 2568.89 7086.73 2572.13 7091 2575.73C7092.28 2576.88 7091 2578.53 7089.22 2578.02C7084.32 2575.67 7079.59 2572.99 7075.06 2569.99C7072.63 2568.33 7074.93 2564.51 7077.35 2566.04Z" fill="#263238"/>
<path d="M7338.05 3177.09H8106.37L8030.74 3969.01H7413.68L7338.05 3177.09Z" fill="#455A64"/>
<path d="M7352.59 3329.12L7338.05 3177.09H8106.37L8097.06 3275.17L7352.59 3329.12Z" fill="#37474F"/>
<path d="M8158.41 3040.75H7286.14V3233.59H8158.41V3040.75Z" fill="#455A64"/>
<path d="M7385.24 62.8789H1473.5V4017.35H7385.24V62.8789Z" fill="#DBDBDB"/>
<path d="M7342.26 111.09H1516.49V3969.13H7342.26V111.09Z" fill="#263238"/>
<path d="M8155.09 4935.91H703.527V5209.87H8155.09V4935.91Z" fill="#C7C7C7"/>
<path d="M703.527 4935.91L1473.5 4017.35H7385.12L8155.09 4935.91H703.527Z" fill="#DBDBDB"/>
<path d="M7384.86 4433.77H1496.08L1797.97 4017.35H7082.97L7384.86 4433.77Z" fill="#263238"/>
<path d="M7279.38 4288.25H1601.56L1613.8 4271.28H7267.14L7279.38 4288.25Z" fill="#37474F"/>
<path d="M7169.06 4136.22H1711.88L1724.12 4119.12H7156.81L7169.06 4136.22Z" fill="#37474F"/>
<path d="M3517.76 4832.6L3708.57 4539.51H5159.11L5363.31 4832.6H3517.76Z" fill="#263238"/>
<path d="M4975.83 5045.98H3905.11L3878.58 4935.91H5002.49L4975.83 5045.98Z" fill="#DBDBDB"/>
<path d="M7017.41 404.184H1841.34V3681.53H7017.41V404.184Z" fill="#37474F"/>
<path d="M7017.41 404.184H1841.34V530.323H7017.41V404.184Z" fill="#7E57C2"/>
<path d="M1959.95 467.191C1959.95 471.908 1958.55 476.519 1955.93 480.441C1953.31 484.363 1949.59 487.421 1945.23 489.226C1940.87 491.031 1936.08 491.503 1931.45 490.583C1926.82 489.663 1922.57 487.391 1919.24 484.056C1915.9 480.72 1913.63 476.47 1912.71 471.844C1911.79 467.217 1912.26 462.422 1914.07 458.063C1915.87 453.705 1918.93 449.98 1922.85 447.36C1926.77 444.739 1931.39 443.34 1936.1 443.34C1939.24 443.323 1942.35 443.929 1945.25 445.121C1948.15 446.314 1950.79 448.07 1953.01 450.288C1955.22 452.506 1956.98 455.142 1958.17 458.044C1959.36 460.945 1959.97 464.054 1959.95 467.191Z" fill="#C7C7C7"/>
<path d="M2057.01 467.191C2057.01 471.908 2055.61 476.519 2052.99 480.441C2050.37 484.363 2046.65 487.421 2042.29 489.226C2037.93 491.031 2033.13 491.503 2028.51 490.583C2023.88 489.663 2019.63 487.391 2016.3 484.056C2012.96 480.72 2010.69 476.47 2009.77 471.844C2008.85 467.217 2009.32 462.422 2011.13 458.063C2012.93 453.705 2015.99 449.98 2019.91 447.36C2023.83 444.739 2028.44 443.34 2033.16 443.34C2036.3 443.323 2039.41 443.929 2042.31 445.121C2045.21 446.314 2047.85 448.07 2050.06 450.288C2052.28 452.506 2054.04 455.142 2055.23 458.044C2056.42 460.945 2057.03 464.054 2057.01 467.191Z" fill="white"/>
<path d="M2154.84 467.191C2154.84 471.908 2153.44 476.519 2150.82 480.441C2148.2 484.363 2144.47 487.421 2140.11 489.226C2135.76 491.031 2130.96 491.503 2126.33 490.583C2121.71 489.663 2117.46 487.391 2114.12 484.056C2110.79 480.72 2108.52 476.47 2107.6 471.844C2106.67 467.217 2107.15 462.422 2108.95 458.063C2110.76 453.705 2113.81 449.98 2117.74 447.36C2121.66 444.739 2126.27 443.34 2130.99 443.34C2134.12 443.323 2137.23 443.929 2140.13 445.121C2143.04 446.314 2145.67 448.07 2147.89 450.288C2150.11 452.506 2151.86 455.142 2153.06 458.044C2154.25 460.945 2154.85 464.054 2154.84 467.191Z" fill="#455A64"/>
<path d="M2317.71 1090.62H2172.06V1134.88H2317.71V1090.62Z" fill="#EBEBEB"/>
<path d="M5717.62 1090.62H2489.51V1134.88H5717.62V1090.62Z" fill="#EBEBEB"/>
<path d="M6083.8 1090.62H5807.16V1134.88H6083.8V1090.62Z" fill="#7E57C2"/>
<path d="M2317.71 1299.92H2172.06V1344.18H2317.71V1299.92Z" fill="#EBEBEB"/>
<path d="M3727.7 1299.92H2631.46V1344.18H3727.7V1299.92Z" fill="#A6A6A6"/>
<path d="M6184.04 2137.36H5769.4V2181.62H6184.04V2137.36Z" fill="#A6A6A6"/>
<path d="M3536.64 1927.94H2489.51V1972.19H3536.64V1927.94Z" fill="#A6A6A6"/>
<path d="M3366.11 1509.34H2631.46V1553.6H3366.11V1509.34Z" fill="#7E57C2"/>
<path d="M6178.31 1509.34H3447.61V1553.6H6178.31V1509.34Z" fill="#A6A6A6"/>
<path d="M5674.64 2137.36H2489.51V2181.62H5674.64V2137.36Z" fill="#7E57C2"/>
<path d="M6052.93 1299.92H3796.57V1344.18H6052.93V1299.92Z" fill="#EBEBEB"/>
<path d="M2317.71 1509.34H2172.06V1553.6H2317.71V1509.34Z" fill="#EBEBEB"/>
<path d="M2317.71 1718.64H2172.06V1762.9H2317.71V1718.64Z" fill="#A6A6A6"/>
<path d="M3350.17 1718.64H2489.51V1762.9H3350.17V1718.64Z" fill="#EBEBEB"/>
<path d="M3492.12 2346.66H2631.46V2390.92H3492.12V2346.66Z" fill="#EBEBEB"/>
<path d="M5718.64 2556.09H3409.73V2600.35H5718.64V2556.09Z" fill="#EBEBEB"/>
<path d="M3278.36 2556.09H2631.46V2600.35H3278.36V2556.09Z" fill="#A6A6A6"/>
<path d="M6083.67 1927.94H3595.82V1972.19H6083.67V1927.94Z" fill="#EBEBEB"/>
<path d="M5924.5 1718.64H3437.66V1762.9H5924.5V1718.64Z" fill="#7E57C2"/>
<path d="M2317.71 1927.94H2172.06V1972.19H2317.71V1927.94Z" fill="#EBEBEB"/>
<path d="M2317.71 2137.36H2172.06V2181.62H2317.71V2137.36Z" fill="#EBEBEB"/>
<path d="M2317.71 2346.66H2172.06V2390.92H2317.71V2346.66Z" fill="#A6A6A6"/>
<path d="M2317.71 2556.09H2172.06V2600.35H2317.71V2556.09Z" fill="#EBEBEB"/>
<path d="M2317.71 2746.12H2172.06V2790.38H2317.71V2746.12Z" fill="#EBEBEB"/>
<path d="M4197.05 2746.12H2489.51V2790.38H4197.05V2746.12Z" fill="#EBEBEB"/>
<path d="M2229.71 881.448C2230.85 882.565 2231.63 883.995 2231.95 885.557C2232.27 887.119 2232.13 888.742 2231.52 890.219C2230.92 891.697 2229.89 892.961 2228.57 893.853C2227.25 894.744 2225.69 895.221 2224.09 895.223C2221.92 895.233 2219.82 894.412 2218.23 892.927L2182.13 856.45C2182.13 856.45 2182.13 856.45 2181.49 855.685C2181.44 855.347 2181.44 855.002 2181.49 854.664C2181.49 854.664 2181.49 854.664 2181.49 853.899V853.006C2181.49 853.006 2181.49 853.006 2181.49 852.241V851.348C2181.49 851.348 2181.49 850.711 2181.49 850.328C2181.47 849.946 2181.47 849.562 2181.49 849.18C2181.67 848.824 2181.94 848.518 2182.26 848.287L2218.35 811.81C2219.9 810.329 2221.95 809.502 2224.09 809.502C2226.23 809.502 2228.29 810.329 2229.83 811.81C2230.6 812.558 2231.2 813.451 2231.62 814.437C2232.03 815.422 2232.25 816.48 2232.25 817.549C2232.25 818.618 2232.03 819.677 2231.62 820.662C2231.2 821.648 2230.6 822.541 2229.83 823.289L2199.48 853.899L2229.71 881.448Z" fill="#7E57C2"/>
<path d="M2262.36 885.531L2293.73 810.791C2294.09 809.93 2294.62 809.151 2295.29 808.497C2295.95 807.844 2296.74 807.33 2297.61 806.986C2298.48 806.641 2299.41 806.473 2300.34 806.492C2301.27 806.51 2302.19 806.714 2303.04 807.092C2303.88 807.44 2304.65 807.952 2305.29 808.597C2305.93 809.242 2306.44 810.007 2306.78 810.849C2307.12 811.691 2307.3 812.592 2307.29 813.502C2307.28 814.411 2307.1 815.31 2306.74 816.147L2275.24 891.015C2274.69 892.278 2273.78 893.351 2272.62 894.099C2271.46 894.848 2270.11 895.239 2268.73 895.224C2267.89 895.403 2267.02 895.403 2266.18 895.224C2265.25 894.897 2264.4 894.373 2263.69 893.688C2262.97 893.003 2262.42 892.172 2262.05 891.253C2261.69 890.333 2261.53 889.346 2261.58 888.359C2261.63 887.371 2261.9 886.407 2262.36 885.531Z" fill="#7E57C2"/>
<path d="M2368.73 855.303L2367.83 856.323L2331.61 892.801C2330.07 894.282 2328.01 895.109 2325.87 895.109C2323.73 895.109 2321.68 894.282 2320.13 892.801C2319.37 892.053 2318.76 891.16 2318.35 890.174C2317.93 889.189 2317.72 888.13 2317.72 887.061C2317.72 885.992 2317.93 884.934 2318.35 883.949C2318.76 882.963 2319.37 882.07 2320.13 881.322L2350.36 850.712L2320.01 820.101C2319.24 819.353 2318.64 818.46 2318.22 817.475C2317.81 816.489 2317.59 815.431 2317.59 814.362C2317.59 813.293 2317.81 812.235 2318.22 811.249C2318.64 810.264 2319.24 809.371 2320.01 808.622C2321.55 807.141 2323.61 806.314 2325.75 806.314C2327.88 806.314 2329.94 807.141 2331.48 808.622L2367.58 845.1L2368.47 845.993C2368.71 846.363 2368.92 846.746 2369.11 847.14C2369.07 847.522 2369.07 847.907 2369.11 848.288V849.181V850.201C2369.09 850.584 2369.09 850.967 2369.11 851.349L2368.73 855.303Z" fill="#7E57C2"/>
<path d="M4311.84 2648.81H4291.95V2887.7H4311.84V2648.81Z" fill="#EBEBEB"/>
<path d="M2615.52 5405.91C2615.52 5405.91 3117.66 5182.71 3200.31 5144.95C3366.11 5069.32 3663.03 4836.3 3790.06 4754.29C3864.29 4706.33 3804.99 4544.23 3579.24 4571.78C3353.49 4599.33 2932.59 4819.21 2896.37 4771.89C2860.15 4724.57 3444.81 4373.32 3526.82 4345.01C3608.83 4316.69 3879.6 4426.89 4043.24 4370.51C4206.87 4314.14 4121.55 4168.74 3991.2 4114.03C3818.51 4041.45 3489.57 3995.16 3368.54 3995.16C3247.5 3995.16 2875.07 4266.06 2875.07 4266.06C2875.07 4266.06 3377.34 4068.49 3439.45 4031.89C3501.56 3995.28 3800.52 3989.54 3989.54 3921.82C4178.56 3854.09 4055.1 3660.48 3739.05 3663.29C3553.23 3663.12 3367.75 3679.25 3184.75 3711.5C3095.47 3725.02 2556.21 4082.14 2556.21 4082.14C2556.21 4082.14 2660.67 4059.56 2703.02 4045.41C2745.36 4031.25 3166 3766.22 3224.41 3735.35C3444.93 3618.65 3600.92 3462.54 3530.51 3364.07C3479.5 3292.52 3185.13 3383.97 3041.77 3466.11C2851.22 3575.16 2311.08 3975 2311.08 3975L2988.07 3518.02C2988.07 3518.02 2933.36 3472.61 2751.48 3512.66C2643.96 3536.38 2203.05 3799.89 2133.03 3853.33C1921.31 4014.67 1351.96 4709.01 1351.96 4709.01L1817.61 5306.55L2615.52 5405.91Z" fill="#D3766A"/>
<path d="M2342.71 3959.06C2502.39 3825.65 2632.61 3675.28 2972.51 3512.66C2973.66 3512.66 2972.51 3509.22 2971.24 3509.47C2728.91 3571.46 2500.22 3768.51 2337.48 3951.92C2332.12 3958.68 2336.33 3964.29 2342.71 3959.06Z" fill="#263238"/>
<path d="M2580.83 4078.95C2722.27 3994.52 2885.91 3881.13 3054.91 3798.36C3137.81 3757.67 3173.52 3749.38 3292.26 3697.47C3293.41 3697.47 3292.26 3694.41 3291.24 3694.66C3183.72 3721.96 3166 3718.77 3050.57 3762.39C2900.32 3819.15 2653.78 4001.79 2575.98 4073.47C2569.86 4079.08 2573.3 4083.29 2580.83 4078.95Z" fill="#263238"/>
<path d="M2842.16 4254.19C2995.22 4192.46 3181.05 4081.63 3338.94 4030.61C3378.48 4017.86 3438.94 4009.7 3529.37 4009.7C3534.21 4009.7 3540.21 4004.34 3528.73 4002.3C3452.2 3988.27 3376.31 3989.54 3329.12 4002.3C3174.29 4045.53 2926.09 4189.02 2838.34 4247.95C2831.45 4252.79 2834.13 4257.51 2842.16 4254.19Z" fill="#263238"/>
<path d="M2615.52 5406.03L2303.42 5904.22H0L1351.44 4709.01L2505.71 4581.6L2615.52 5406.03Z" fill="#D3766A"/>
<path d="M2303.42 5904.22L2385.94 5772.34L662.458 5318.29L0 5904.22H2303.42Z" fill="#7E57C2"/>
<path opacity="0.1" d="M2303.42 5904.22L2385.94 5772.34L662.458 5318.29L0 5904.22H2303.42Z" fill="black"/>
<path opacity="0.1" d="M14.9219 5890.95L79.7137 5833.56V5904.09H14.9219V5890.95Z" fill="black"/>
<path opacity="0.1" d="M2286.72 5746.19V5904.09H2221.92V5729.1L2286.72 5746.19Z" fill="black"/>
<path opacity="0.1" d="M1845.29 5629.87L2056.25 5685.48H1845.29V5904.09H1780.5V5685.48H1403.86V5904.09H1339.07V5685.48H962.438V5904.09H897.646V5685.48H521.14V5904.09H456.348V5685.48H247.178L320.515 5620.69H456.348V5500.54L521.14 5443.28V5620.69H897.646V5380.27L962.438 5397.36V5620.69H1339.07V5496.59L1403.86 5513.55V5620.69H1780.5V5612.78L1810.34 5620.69H1845.29V5629.87Z" fill="black"/>
<path d="M359.543 5523.5L2385.94 5845.8L2572.92 5557.43L766.405 5156.94L359.543 5523.5Z" fill="#7E57C2"/>
<path d="M6041.96 5142.91C6041.96 5142.91 5584.34 4915.89 5498.5 4886.3C5326.57 4826.86 5062.81 4578.41 4928.38 4509.02C4849.94 4468.47 4893.44 4301.39 5120.85 4307.12C5348.25 4312.86 5600.53 4500.99 5611.76 4482.11C5642.5 4431.1 5117.02 4194.76 5032.84 4174.48C4948.66 4154.2 4685.67 4223.2 4517.31 4182.77C4348.96 4142.34 4420 3989.54 4544.48 3922.46C4709.39 3833.18 5036.28 3822.72 5156.69 3810.98C5277.09 3799.25 5673.87 4033.29 5673.87 4033.29C5673.87 4033.29 5155.03 3884.96 5089.6 3854.73C5024.17 3824.5 4726.1 3847.33 4531.47 3798.1C4336.84 3748.87 4441.17 3544.29 4755.95 3516.74C4940.94 3498.87 5127.14 3497.25 5312.42 3511.89C5403.1 3516.74 5973.6 3820.42 5973.6 3820.42C5973.6 3820.42 5867.48 3807.67 5823.99 3797.97C5780.5 3788.28 5336.27 3564.57 5275.56 3539.44C5044.58 3443.66 4874.43 3303.36 4935.4 3198.9C4979.78 3122.38 5281.04 3185.51 5431.54 3253.37C5631.78 3343.67 6207.77 3689.69 6207.77 3689.69L5440.6 3282.83C5440.6 3282.83 5475.93 3210 5585.48 3220.59C5976.91 3258.85 6298.58 3504.5 6373.44 3551.05C6599.71 3691.35 7233.21 4327.79 7233.21 4327.79L6837.06 4935.91L6041.96 5142.91Z" fill="#D3766A"/>
<path d="M6214.91 3639.95C6037.75 3534.85 5810.6 3395.19 5457.05 3263.44C5455.9 3263.44 5456.28 3260.89 5457.05 3261.14C5698.49 3314.84 6028.19 3470.06 6217.97 3635.23C6224.73 3640.2 6222.18 3644.03 6214.91 3639.95Z" fill="#263238"/>
<path d="M5948.85 3818.64C5800.01 3748.36 5626.17 3651.17 5450.03 3584.98C5363.56 3552.45 5327.34 3547.61 5204.13 3507.3C5202.86 3507.3 5203.49 3504.24 5204.9 3504.5C5314.58 3521.33 5331.8 3516.36 5450.93 3548.75C5605.89 3590.84 5868.89 3748.87 5953.19 3812.77C5959.82 3817.74 5956.76 3822.33 5948.85 3818.64Z" fill="#263238"/>
<path d="M5705.5 4018.37C5547.6 3971.43 5351.7 3878.96 5189.59 3843.51C5149.03 3834.58 4988.71 3828.33 4898.67 3837C4893.82 3837 4887.44 3832.79 4898.67 3829.6C4973.92 3808.18 5148.65 3805.88 5196.86 3814.43C5355.01 3842.61 5615.97 3961.61 5708.95 4011.86C5716.22 4015.82 5713.92 4020.79 5705.5 4018.37Z" fill="#263238"/>
<path d="M8858.62 5906.26L7233.21 4327.79L6210.96 4372.43L6041.96 5142.91L6504.05 5906.26H8858.62Z" fill="#D3766A"/>
<path d="M6504.05 5906.26L6228.3 5450.8L7647.6 4730.18L8858.62 5906.26H6504.05Z" fill="#7E57C2"/>
<path opacity="0.1" d="M6504.05 5906.26L6228.3 5450.8L7647.6 4730.18L8858.62 5906.26H6504.05Z" fill="black"/>
<path opacity="0.1" d="M7722.21 4802.63H7505.39L7632.93 4737.84H7656.14L7709.2 4788.85L7722.21 4802.63ZM8109.94 5179.26H6760.92V5180.41L6635.54 5244.18H8176.65L8149.86 5218.67L8109.94 5179.26ZM8564.5 5620.69H6331.1L6370.38 5685.48H8631.21L8591.29 5647.22L8564.5 5620.69ZM8564.5 5620.69L8526.24 5583.83V5906.38H8591.03V5646.71L8564.5 5620.69ZM8109.94 5179.26L8084.43 5155.03V5906.38H8149.22V5217.65L8109.94 5179.26ZM7656.14 4737.84L7648.24 4730.18L7643.39 4731.84V5906H7708.31V4789.36L7656.14 4737.84ZM7202.98 4956.19V5906.38H7267.77V4923.16L7202.98 4956.19ZM6763.34 5179.26H6761.18V5906.26H6825.97V5147.38L6763.34 5179.26ZM6319.49 5404.5V5601.43L6331.1 5620.69L6370.38 5685.48L6384.29 5708.56V5371.6L6319.49 5404.5Z" fill="black"/>
<path d="M6119.25 5410.37L6365.28 5772.34L8087.24 5072.89L7620.69 4655.44L6119.25 5410.37Z" fill="#7E57C2"/>
</svg>
