<svg width="312" height="312" viewBox="0 0 312 312" fill="none" xmlns="http://www.w3.org/2000/svg">
<g clip-path="url(#clip0_301_15)">
<path d="M268.214 19H43.7855C30.097 19 19 30.0565 19 43.6951V267.304C19 280.944 30.097 292 43.7855 292H268.214C281.903 292 293 280.944 293 267.304V43.6951C293 30.0565 281.903 19 268.214 19ZM103.787 254.726C103.787 258.695 100.558 261.913 96.5743 261.913H65.8705C61.8867 261.913 58.6576 258.695 58.6576 254.726V126.487C58.6576 122.518 61.8867 119.3 65.8705 119.3H96.5743C100.558 119.3 103.787 122.518 103.787 126.487V254.726ZM81.2224 107.212C65.1131 107.212 52.0536 94.2001 52.0536 78.1495C52.0536 62.099 65.1131 49.0872 81.2224 49.0872C97.3317 49.0872 110.391 62.099 110.391 78.1495C110.391 94.2001 97.3324 107.212 81.2224 107.212ZM264.244 255.305C264.244 258.954 261.275 261.913 257.612 261.913H224.665C221.003 261.913 218.033 258.954 218.033 255.305V195.154C218.033 186.18 220.675 155.832 194.497 155.832C174.192 155.832 170.073 176.605 169.246 185.927V255.305C169.246 258.954 166.277 261.913 162.614 261.913H130.748C127.086 261.913 124.116 258.954 124.116 255.305V125.908C124.116 122.259 127.086 119.3 130.748 119.3H162.614C166.276 119.3 169.246 122.259 169.246 125.908V137.096C176.775 125.838 187.965 117.149 211.789 117.149C264.546 117.149 264.244 166.257 264.244 193.24V255.305Z" fill="#0077B7"/>
</g>
<defs>
<clipPath id="clip0_301_15">
<rect width="274" height="273" fill="white" transform="translate(19 19)"/>
</clipPath>
</defs>
</svg>
