<svg width="787" height="312" viewBox="0 0 787 312" fill="none" xmlns="http://www.w3.org/2000/svg">
<rect width="787" height="312" rx="65" fill="#5D27B4"/>
<path d="M132.752 201V111.4H172.944C182.587 111.4 190.395 114.045 196.368 119.336C202.341 124.541 205.328 131.539 205.328 140.328C205.328 149.117 202.341 156.2 196.368 161.576C190.395 166.867 182.629 169.512 173.072 169.512H152.208V201H132.752ZM152.208 153.384H169.488C174.181 153.384 177.936 152.232 180.752 149.928C183.653 147.539 185.104 144.339 185.104 140.328C185.104 136.488 183.653 133.416 180.752 131.112C177.851 128.723 174.096 127.528 169.488 127.528H152.208V153.384ZM210.355 169C210.355 158.931 213.512 150.781 219.827 144.552C226.142 138.237 234.206 135.08 244.019 135.08C253.918 135.08 261.982 138.237 268.211 144.552C274.526 150.781 277.683 158.931 277.683 169C277.683 179.24 274.568 187.475 268.339 193.704C262.11 199.933 254.003 203.048 244.019 203.048C234.376 203.048 226.355 199.848 219.955 193.448C213.555 186.963 210.355 178.813 210.355 169ZM254.771 183.72C257.416 180.392 258.739 175.571 258.739 169.256C258.739 162.941 257.416 158.077 254.771 154.664C252.211 151.165 248.627 149.416 244.019 149.416C239.411 149.416 235.784 151.165 233.139 154.664C230.579 158.077 229.299 162.941 229.299 169.256C229.299 175.571 230.579 180.392 233.139 183.72C235.784 186.963 239.411 188.584 244.019 188.584C248.627 188.584 252.211 186.963 254.771 183.72ZM290.957 201V137H307.341C307.341 143.827 305.506 150.312 301.837 156.456H309.517C311.138 149.203 313.528 143.955 316.685 140.712C319.842 137.384 324.664 135.72 331.149 135.72C333.282 135.72 334.562 135.763 334.989 135.848V154.536C332.514 154.28 330.168 154.152 327.949 154.152C321.122 154.152 316.258 155.773 313.357 159.016C310.541 162.259 309.133 168.061 309.133 176.424V201H290.957ZM352.485 184.232V150.824H339.045V137H352.485V116.904H370.661V137H387.301V150.824H370.661V180.904C370.661 182.867 371.088 184.317 371.941 185.256C372.88 186.109 374.33 186.536 376.293 186.536H390.117V201H368.741C363.706 201 359.738 199.464 356.837 196.392C353.936 193.32 352.485 189.267 352.485 184.232ZM407.467 201V150.824H395.051V137H407.467V128.168C407.467 123.048 408.875 118.995 411.691 116.008C414.507 112.936 418.432 111.4 423.467 111.4H443.179V125.864H431.275C429.312 125.864 427.862 126.333 426.923 127.272C426.07 128.125 425.643 129.533 425.643 131.496V137H440.491V150.824H425.643V201H407.467ZM445.105 169C445.105 158.931 448.262 150.781 454.577 144.552C460.892 138.237 468.956 135.08 478.769 135.08C488.668 135.08 496.732 138.237 502.961 144.552C509.276 150.781 512.433 158.931 512.433 169C512.433 179.24 509.318 187.475 503.089 193.704C496.86 199.933 488.753 203.048 478.769 203.048C469.126 203.048 461.105 199.848 454.705 193.448C448.305 186.963 445.105 178.813 445.105 169ZM489.521 183.72C492.166 180.392 493.489 175.571 493.489 169.256C493.489 162.941 492.166 158.077 489.521 154.664C486.961 151.165 483.377 149.416 478.769 149.416C474.161 149.416 470.534 151.165 467.889 154.664C465.329 158.077 464.049 162.941 464.049 169.256C464.049 175.571 465.329 180.392 467.889 183.72C470.534 186.963 474.161 188.584 478.769 188.584C483.377 188.584 486.961 186.963 489.521 183.72ZM525.707 201V111.4H543.883V201H525.707ZM560.814 128.296V111.144H580.142V128.296H560.814ZM561.454 201V137H579.63V201H561.454ZM592.73 169C592.73 158.931 595.887 150.781 602.202 144.552C608.517 138.237 616.581 135.08 626.394 135.08C636.293 135.08 644.357 138.237 650.586 144.552C656.901 150.781 660.058 158.931 660.058 169C660.058 179.24 656.943 187.475 650.714 193.704C644.485 199.933 636.378 203.048 626.394 203.048C616.751 203.048 608.73 199.848 602.33 193.448C595.93 186.963 592.73 178.813 592.73 169ZM637.146 183.72C639.791 180.392 641.114 175.571 641.114 169.256C641.114 162.941 639.791 158.077 637.146 154.664C634.586 151.165 631.002 149.416 626.394 149.416C621.786 149.416 618.159 151.165 615.514 154.664C612.954 158.077 611.674 162.941 611.674 169.256C611.674 175.571 612.954 180.392 615.514 183.72C618.159 186.963 621.786 188.584 626.394 188.584C631.002 188.584 634.586 186.963 637.146 183.72Z" fill="white"/>
</svg>
