<svg width="312" height="312" viewBox="0 0 312 312" fill="none" xmlns="http://www.w3.org/2000/svg">
<path d="M292.757 87.1631C291.112 81.0972 287.908 75.5674 283.464 71.1232C279.02 66.6789 273.49 63.475 267.424 61.8297C245.214 55.7656 155.821 55.7656 155.821 55.7656C155.821 55.7656 66.4239 55.9444 44.2098 62.0085C38.1439 63.6538 32.6141 66.8577 28.1698 71.3019C23.7256 75.7461 20.5217 81.2759 18.8764 87.3418C13 109.556 13 156 13 156C13 156 13 202.443 19.0596 224.836C20.7049 230.902 23.9089 236.432 28.3531 240.876C32.7973 245.32 38.3271 248.524 44.393 250.17C66.6027 256.234 156 256.234 156 256.234C156 256.234 245.397 256.234 267.612 250.174C273.677 248.529 279.207 245.325 283.651 240.881C288.096 236.436 291.3 230.907 292.945 224.841C299 202.627 299 156 299 156C299 156 298.821 109.556 292.757 87.1631Z" fill="#FF0000"/>
<path d="M127.364 198.954L201.523 156L127.359 113.047L127.364 198.954Z" fill="white"/>
</svg>
